<svg xmlns="http://www.w3.org/2000/svg" viewBox="0 0 800 44">
	<path fill="#005cc5"
		d="M.75 10.52h4.6a.75.75.0 01.74.62l.11.59a.75.75.0 001.24.43A8.59 8.59.0 0113.6 9.74c3.94.0 6.33 2.51 6.33 6.89V33.52H13.84a.75.75.0 01-.76-.75V18.62c0-2.86-.52-3.81-2.21-3.81-1.4.0-2.62.91-3.85 2.43a.77.77.0 00-.18.48V32.77a.74.74.0 01-.75.75H0V11.27a.76.76.0 01.75-.75z">
	</path>
	<path fill="#005cc5"
		d="M36.37 29.28a10.7 10.7.0 005.33-1.56.74.74.0 011 .21l1.89 2.59a.75.75.0 01-.16 1.05 14.05 14.05.0 01-8.59 2.69c-7.89.0-12-5.07-12-12.22.0-6.8 4-12.3 11.22-12.3 6.58.0 10.79 4.42 10.79 11.83.0.54.0 1.19-.07 1.76A.75.75.0 0145 24H31.72A.75.75.0 0031 25a5 5 0 005.37 4.28zm-4.79-9.4H38.4a.77.77.0 00.75-.82c-.22-2.87-1.42-4.73-4.08-4.73-2.23.0-3.77 1.47-4.24 4.68A.77.77.0 0031.58 19.88z">
	</path>
	<path fill="#005cc5"
		d="M62.28 32.83l-1-8a.9.9.0 00-1.78.0l-1.08 8a.79.79.0 01-.79.69h-6.7L47.6 11.43a.8.8.0 01.79-.91H53a.79.79.0 01.79.73l.83 10.24a.9.9.0 001.79.06l1.12-7.45a.8.8.0 01.79-.68h4.42a.81.81.0 01.79.69L64.48 21a.89.89.0 001.78.0l.82-9.74a.79.79.0 01.79-.73h4.41a.79.79.0 01.79.91L69.91 33.49h-6.8A.79.79.0 0162.28 32.83z">
	</path>
	<path fill="#24292e"
		d="M91.44 40.92l-2.88 2.63a.75.75.0 01-1 0C81 37.78 76.88 31.25 76.88 22S81 6.22 87.55.44a.75.75.0 011 0l2.89 2.64a.76.76.0 010 1.06c-5.44 6.1-7.69 10.91-7.69 17.85s1.84 11.36 7.68 17.85A.76.76.0 0191.44 40.92z">
	</path>
	<path fill="#24292e"
		d="M115.93 11.12l-1.09 8.36a.76.76.0 01-.75.66h-2.92a.76.76.0 01-.75-.76V16.93a.75.75.0 00-1-.71c-2.09.83-3.72 3.1-4.63 6a.91.91.0 000 .23v5.72a.75.75.0 00.75.75h3a.76.76.0 01.76.75v3.84H94.87V29.68a.76.76.0 01.75-.75h1.53a.76.76.0 00.75-.75V15.82a.76.76.0 00-.75-.75H95.62a.76.76.0 01-.75-.75V11.27a.76.76.0 01.75-.75h6.93a.75.75.0 01.73.58l.6 2.54a.75.75.0 001.38.22 7.57 7.57.0 016.94-4 10 10 0 013.2.47A.76.76.0 01115.93 11.12z">
	</path>
	<path fill="#24292e"
		d="M130.7 29.28A10.67 10.67.0 00136 27.72a.74.74.0 011 .21l1.9 2.59a.76.76.0 01-.16 1.05 14.08 14.08.0 01-8.6 2.69c-7.89.0-12-5.07-12-12.22.0-6.8 4-12.3 11.22-12.3 6.59.0 10.79 4.42 10.79 11.83.0.54.0 1.19-.06 1.76a.76.76.0 01-.76.71H126.05a.76.76.0 00-.74.91A5 5 0 00130.7 29.28zm-4.78-9.4h6.81a.75.75.0 00.75-.82c-.21-2.87-1.42-4.73-4.08-4.73-2.23.0-3.77 1.47-4.23 4.68A.76.76.0 00125.92 19.88z">
	</path>
	<path fill="#24292e"
		d="M153 26.29c0 1.86 1.12 2.55 2.94 2.55a8.33 8.33.0 002.6-.43.75.75.0 01.95.46l1.13 3.25a.75.75.0 01-.39.93 14.21 14.21.0 01-6 1.21c-5.55.0-8.06-3.42-8.06-8.84V6.81a.75.75.0 00-.75-.75h-5.25a.76.76.0 01-.76-.76V2.13a.76.76.0 01.76-.75h12.09a.76.76.0 01.76.75z">
	</path>
	<path fill="#24292e"
		d="M175.51 29.28a10.67 10.67.0 005.33-1.56.74.74.0 011 .21l1.9 2.59a.75.75.0 01-.17 1.05A14 14 0 01175 34.26c-7.89.0-12-5.07-12-12.22.0-6.8 4-12.3 11.22-12.3 6.59.0 10.79 4.42 10.79 11.83.0.54.0 1.19-.06 1.76a.76.76.0 01-.76.71H170.86a.75.75.0 00-.74.91A5 5 0 00175.51 29.28zm-4.79-9.4h6.82a.75.75.0 00.75-.82c-.21-2.87-1.42-4.73-4.08-4.73-2.23.0-3.77 1.47-4.23 4.68A.76.76.0 00170.72 19.88z">
	</path>
	<path fill="#24292e"
		d="M209.74 30.3l-1.05 3.28a.76.76.0 01-.83.52 6.62 6.62.0 01-4.48-2.21.76.76.0 00-1.13-.09 10.17 10.17.0 01-6.91 2.46c-4.77.0-7.8-3-7.8-7.23.0-5 4.11-7.85 11.22-7.85h3.07v-.82c0-2.42-1.6-3.55-4.54-3.55a21.73 21.73.0 00-5.63 1 .76.76.0 01-.94-.47l-1.08-3.15a.76.76.0 01.46-1 27.26 27.26.0 018.27-1.48c6.84.0 10 2.86 10 8.14v9c0 1.43.29 2.12 1 2.54A.74.74.0 01209.74 30.3zm-7.91-3.66v-2.8a.75.75.0 00-.75-.76h-.94c-3.81.0-5.54 1.22-5.54 3.47.0 1.77 1.13 2.81 3.08 2.81a5 5 0 004-2.33A.73.73.0 00201.83 26.64z">
	</path>
	<path fill="#24292e"
		d="M227 27.2c0-1.47-.87-2-5.46-3.29-4.2-1.13-7.1-2.95-7.1-7s3.5-7.15 10-7.15A15.41 15.41.0 01233 12.12a.76.76.0 01.21 1.06L231.33 16a.76.76.0 01-1 .25 12.18 12.18.0 00-5.78-1.61c-2.26.0-3.3.56-3.3 1.77s.91 1.69 5.42 2.95 7.36 2.77 7.36 7.28c0 5.06-5 7.62-10.87 7.62a15.44 15.44.0 01-9.6-2.94.77.77.0 01-.11-1.11l2.45-2.76a.75.75.0 011-.12 10.76 10.76.0 006.23 2C225.43 29.36 227 28.67 227 27.2z">
	</path>
	<path fill="#24292e"
		d="M249.81 29.28a10.67 10.67.0 005.33-1.56.75.75.0 011 .21L258 30.52a.76.76.0 01-.16 1.05 14.08 14.08.0 01-8.6 2.69c-7.88.0-11.95-5.07-11.95-12.22.0-6.8 4-12.3 11.22-12.3 6.58.0 10.78 4.42 10.78 11.83.0.54.0 1.19-.06 1.76a.76.76.0 01-.75.71H245.17a.75.75.0 00-.74.91A5 5 0 00249.81 29.28zM245 19.88h6.81a.77.77.0 00.76-.82c-.22-2.87-1.43-4.73-4.08-4.73-2.24.0-3.77 1.47-4.24 4.68A.76.76.0 00245 19.88z">
	</path>
	<path fill="#24292e"
		d="M275.87 27.2c0-1.47-.87-2-5.46-3.29-4.2-1.13-7.1-2.95-7.1-7s3.5-7.15 10-7.15A15.41 15.41.0 01282 12.12a.76.76.0 01.21 1.06L280.25 16a.76.76.0 01-1 .25 12.18 12.18.0 00-5.78-1.61c-2.26.0-3.3.56-3.3 1.77s.91 1.69 5.42 2.95S283 22.13 283 26.64c0 5.06-5 7.62-10.87 7.62a15.44 15.44.0 01-9.6-2.94.76.76.0 01-.1-1.11l2.44-2.76a.75.75.0 011-.12 10.76 10.76.0 006.23 2C274.35 29.36 275.87 28.67 275.87 27.2z">
	</path>
	<path fill="#24292e"
		d="M285.43 3.09l2.9-2.64a.74.74.0 011 0C295.88 6.22 3e2 12.75 3e2 22s-4.12 15.78-10.67 21.56a.74.74.0 01-1 0l-2.89-2.63a.76.76.0 01-.05-1.07c5.84-6.49 7.68-10.9 7.68-17.85s-2.25-11.75-7.69-17.85A.76.76.0 01285.43 3.09z">
	</path>
</svg>
